<svg width="267" height="89" viewBox="0 0 267 89" fill="none" xmlns="http://www.w3.org/2000/svg">
<path d="M107.322 34H103.719V21.3965C103.719 20.1543 103.484 18.9883 103.016 17.8984C102.547 16.8086 101.902 15.8594 101.082 15.0508C100.273 14.2305 99.3184 13.5859 98.2168 13.1172C97.127 12.6367 95.9609 12.3965 94.7188 12.3965H92.7852V34H89.1816V8.79297H94.7188C95.8672 8.79297 96.9688 8.94531 98.0234 9.25C99.0898 9.54297 100.086 9.95898 101.012 10.498C101.938 11.0371 102.781 11.6816 103.543 12.4316C104.305 13.1816 104.967 14.0137 105.529 14.9277C106.08 14.0137 106.736 13.1816 107.498 12.4316C108.26 11.6816 109.104 11.0371 110.029 10.498C110.955 9.95898 111.945 9.54297 113 9.25C114.066 8.94531 115.174 8.79297 116.322 8.79297H121.877V34H118.273V12.3965H116.322C115.08 12.3965 113.914 12.6367 112.824 13.1172C111.734 13.5859 110.779 14.2305 109.959 15.0508C109.15 15.8594 108.506 16.8086 108.025 17.8984C107.557 18.9883 107.322 20.1543 107.322 21.3965V34ZM148.156 34H127.484V14.1367H148.156V17.7578H131.123V30.3613H148.156V34ZM145.854 25.791H132.828V22.1523H145.854V25.791ZM173.557 14.207V24.1035C173.557 25.4746 173.299 26.7637 172.783 27.9707C172.268 29.166 171.559 30.2148 170.656 31.1172C169.766 32.0078 168.723 32.7109 167.527 33.2266C166.332 33.7422 165.055 34 163.695 34H161.709C160.35 34 159.072 33.7422 157.877 33.2266C156.682 32.6992 155.633 31.9902 154.73 31.0996C153.84 30.1973 153.137 29.1484 152.621 27.9531C152.105 26.7461 151.848 25.4629 151.848 24.1035V14.207H155.451V24.1035C155.451 24.9707 155.615 25.791 155.943 26.5645C156.271 27.3262 156.717 27.9941 157.279 28.5684C157.854 29.1309 158.516 29.5762 159.266 29.9043C160.027 30.2324 160.842 30.3965 161.709 30.3965H163.695C164.562 30.3965 165.377 30.2324 166.139 29.9043C166.9 29.5762 167.562 29.1309 168.125 28.5684C168.688 27.9941 169.133 27.3262 169.461 26.5645C169.789 25.791 169.953 24.9707 169.953 24.1035V14.207H173.557Z" fill="#41414D"/>
<path d="M107.322 34V35H108.322V34H107.322ZM103.719 34H102.719V35H103.719V34ZM101.082 15.0508L100.37 15.7528L100.375 15.7579L100.38 15.763L101.082 15.0508ZM98.2168 13.1172L97.8134 14.0323L97.8252 14.0373L98.2168 13.1172ZM92.7852 12.3965V11.3965H91.7852V12.3965H92.7852ZM92.7852 34V35H93.7852V34H92.7852ZM89.1816 34H88.1816V35H89.1816V34ZM89.1816 8.79297V7.79297H88.1816V8.79297H89.1816ZM98.0234 9.25L97.7459 10.2108L97.7585 10.2143L98.0234 9.25ZM105.529 14.9277L104.678 15.4518L105.538 16.8504L106.386 15.4438L105.529 14.9277ZM113 9.25L113.268 10.2135L113.275 10.2115L113 9.25ZM121.877 8.79297H122.877V7.79297H121.877V8.79297ZM121.877 34V35H122.877V34H121.877ZM118.273 34H117.273V35H118.273V34ZM118.273 12.3965H119.273V11.3965H118.273V12.3965ZM112.824 13.1172L113.219 14.0359L113.228 14.0322L112.824 13.1172ZM108.025 17.8984L107.11 17.495L107.107 17.5033L108.025 17.8984ZM107.322 33H103.719V35H107.322V33ZM104.719 34V21.3965H102.719V34H104.719ZM104.719 21.3965C104.719 20.0249 104.459 18.7238 103.934 17.5033L102.097 18.2935C102.51 19.2527 102.719 20.2836 102.719 21.3965H104.719ZM103.934 17.5033C103.416 16.2984 102.699 15.2406 101.784 14.3386L100.38 15.763C101.106 16.4781 101.678 17.3188 102.097 18.2935L103.934 17.5033ZM101.794 14.3488C100.89 13.4319 99.8252 12.7148 98.6084 12.197L97.8252 14.0373C98.8115 14.457 99.6565 15.0291 100.37 15.7528L101.794 14.3488ZM98.6202 12.2022C97.3978 11.6633 96.0938 11.3965 94.7188 11.3965V13.3965C95.8281 13.3965 96.8561 13.6102 97.8134 14.0322L98.6202 12.2022ZM94.7188 11.3965H92.7852V13.3965H94.7188V11.3965ZM91.7852 12.3965V34H93.7852V12.3965H91.7852ZM92.7852 33H89.1816V35H92.7852V33ZM90.1816 34V8.79297H88.1816V34H90.1816ZM89.1816 9.79297H94.7188V7.79297H89.1816V9.79297ZM94.7188 9.79297C95.7776 9.79297 96.7855 9.93327 97.7459 10.2107L98.301 8.28929C97.152 7.95736 95.9567 7.79297 94.7188 7.79297V9.79297ZM97.7585 10.2143C98.7442 10.4851 99.6599 10.8681 100.509 11.3622L101.515 9.63387C100.512 9.04989 99.4355 8.60087 98.2883 8.28573L97.7585 10.2143ZM100.509 11.3622C101.362 11.8593 102.139 12.453 102.841 13.1442L104.245 11.7191C103.423 10.9103 102.513 10.2149 101.515 9.63387L100.509 11.3622ZM102.841 13.1442C103.545 13.8374 104.157 14.6061 104.678 15.4518L106.381 14.4036C105.776 13.4212 105.064 12.5258 104.245 11.7191L102.841 13.1442ZM106.386 15.4438C106.893 14.6016 107.497 13.8356 108.2 13.1442L106.796 11.7191C105.975 12.5277 105.267 13.4257 104.673 14.4116L106.386 15.4438ZM108.2 13.1442C108.902 12.453 109.679 11.8593 110.532 11.3622L109.526 9.63387C108.528 10.2149 107.618 10.9103 106.796 11.7191L108.2 13.1442ZM110.532 11.3622C111.383 10.8671 112.294 10.4841 113.268 10.2135L112.732 8.28648C111.597 8.60185 110.527 9.05082 109.526 9.63387L110.532 11.3622ZM113.275 10.2115C114.249 9.93326 115.263 9.79297 116.322 9.79297V7.79297C115.084 7.79297 113.884 7.95737 112.725 8.28848L113.275 10.2115ZM116.322 9.79297H121.877V7.79297H116.322V9.79297ZM120.877 8.79297V34H122.877V8.79297H120.877ZM121.877 33H118.273V35H121.877V33ZM119.273 34V12.3965H117.273V34H119.273ZM118.273 11.3965H116.322V13.3965H118.273V11.3965ZM116.322 11.3965C114.947 11.3965 113.643 11.6633 112.421 12.2022L113.228 14.0322C114.185 13.6102 115.213 13.3965 116.322 13.3965V11.3965ZM112.429 12.1986C111.225 12.7162 110.164 13.4317 109.252 14.3437L110.666 15.7579C111.395 15.0293 112.243 14.4556 113.219 14.0358L112.429 12.1986ZM109.252 14.3437C108.352 15.2434 107.639 16.2967 107.11 17.495L108.94 18.3018C109.373 17.3204 109.949 16.4754 110.666 15.7579L109.252 14.3437ZM107.107 17.5033C106.582 18.7238 106.322 20.0249 106.322 21.3965H108.322C108.322 20.2836 108.531 19.2527 108.944 18.2935L107.107 17.5033ZM106.322 21.3965V34H108.322V21.3965H106.322ZM148.156 34V35H149.156V34H148.156ZM127.484 34H126.484V35H127.484V34ZM127.484 14.1367V13.1367H126.484V14.1367H127.484ZM148.156 14.1367H149.156V13.1367H148.156V14.1367ZM148.156 17.7578V18.7578H149.156V17.7578H148.156ZM131.123 17.7578V16.7578H130.123V17.7578H131.123ZM131.123 30.3613H130.123V31.3613H131.123V30.3613ZM148.156 30.3613H149.156V29.3613H148.156V30.3613ZM145.854 25.791V26.791H146.854V25.791H145.854ZM132.828 25.791H131.828V26.791H132.828V25.791ZM132.828 22.1523V21.1523H131.828V22.1523H132.828ZM145.854 22.1523H146.854V21.1523H145.854V22.1523ZM148.156 33H127.484V35H148.156V33ZM128.484 34V14.1367H126.484V34H128.484ZM127.484 15.1367H148.156V13.1367H127.484V15.1367ZM147.156 14.1367V17.7578H149.156V14.1367H147.156ZM148.156 16.7578H131.123V18.7578H148.156V16.7578ZM130.123 17.7578V30.3613H132.123V17.7578H130.123ZM131.123 31.3613H148.156V29.3613H131.123V31.3613ZM147.156 30.3613V34H149.156V30.3613H147.156ZM145.854 24.791H132.828V26.791H145.854V24.791ZM133.828 25.791V22.1523H131.828V25.791H133.828ZM132.828 23.1523H145.854V21.1523H132.828V23.1523ZM144.854 22.1523V25.791H146.854V22.1523H144.854ZM173.557 14.207H174.557V13.207H173.557V14.207ZM172.783 27.9707L173.701 28.3668L173.703 28.3635L172.783 27.9707ZM157.877 33.2266L157.473 34.1415L157.481 34.1448L157.877 33.2266ZM154.73 31.0996L154.019 31.8021L154.028 31.8113L154.73 31.0996ZM152.621 27.9531L151.701 28.346L151.703 28.3492L152.621 27.9531ZM151.848 14.207V13.207H150.848V14.207H151.848ZM155.451 14.207H156.451V13.207H155.451V14.207ZM155.943 26.5645L155.023 26.955L155.025 26.9601L155.943 26.5645ZM157.279 28.5684L156.565 29.2681L156.572 29.2755L156.58 29.2827L157.279 28.5684ZM159.266 29.9043L158.865 30.8205L158.87 30.8227L159.266 29.9043ZM168.125 28.5684L168.832 29.2755L168.839 29.2681L168.125 28.5684ZM169.461 26.5645L170.379 26.9601L170.382 26.955L169.461 26.5645ZM169.953 14.207V13.207H168.953V14.207H169.953ZM172.557 14.207V24.1035H174.557V14.207H172.557ZM172.557 24.1035C172.557 25.3457 172.324 26.5005 171.864 27.5779L173.703 28.3635C174.274 27.0268 174.557 25.6035 174.557 24.1035H172.557ZM171.865 27.5746C171.398 28.6562 170.76 29.599 169.949 30.4101L171.363 31.8243C172.357 30.8307 173.137 29.6758 173.701 28.3668L171.865 27.5746ZM169.949 30.4101C169.151 31.2083 168.214 31.8411 167.131 32.3084L167.923 34.1448C169.231 33.5808 170.38 32.8073 171.363 31.8243L169.949 30.4101ZM167.131 32.3084C166.067 32.7676 164.925 33 163.695 33V35C165.185 35 166.598 34.7167 167.923 34.1448L167.131 32.3084ZM163.695 33H161.709V35H163.695V33ZM161.709 33C160.48 33 159.338 32.7676 158.273 32.3084L157.481 34.1448C158.807 34.7167 160.22 35 161.709 35V33ZM158.281 32.3116C157.193 31.8318 156.246 31.1906 155.433 30.3879L154.028 31.8113C155.019 32.7899 156.17 33.5666 157.473 34.1415L158.281 32.3116ZM155.442 30.3971C154.641 29.5856 154.007 28.6414 153.539 27.557L151.703 28.3492C152.266 29.6555 153.039 30.8089 154.019 31.8021L155.442 30.3971ZM153.541 27.5603C153.08 26.4819 152.848 25.3328 152.848 24.1035H150.848C150.848 25.593 151.131 27.0103 151.701 28.346L153.541 27.5603ZM152.848 24.1035V14.207H150.848V24.1035H152.848ZM151.848 15.207H155.451V13.207H151.848V15.207ZM154.451 14.207V24.1035H156.451V14.207H154.451ZM154.451 24.1035C154.451 25.1005 154.641 26.054 155.023 26.955L156.864 26.1739C156.59 25.528 156.451 24.8409 156.451 24.1035H154.451ZM155.025 26.9601C155.4 27.8312 155.914 28.6032 156.565 29.2681L157.994 27.8686C157.52 27.3851 157.143 26.8211 156.862 26.1688L155.025 26.9601ZM156.58 29.2827C157.242 29.9316 158.006 30.4447 158.865 30.8205L159.666 28.9881C159.025 28.7077 158.465 28.3301 157.979 27.854L156.58 29.2827ZM158.87 30.8227C159.762 31.2071 160.712 31.3965 161.709 31.3965V29.3965C160.972 29.3965 160.292 29.2577 159.661 28.9859L158.87 30.8227ZM161.709 31.3965H163.695V29.3965H161.709V31.3965ZM163.695 31.3965C164.692 31.3965 165.642 31.2071 166.534 30.8227L165.743 28.9859C165.112 29.2577 164.433 29.3965 163.695 29.3965V31.3965ZM166.534 30.8227C167.407 30.4467 168.176 29.9313 168.832 29.2755L167.418 27.8613C166.949 28.3304 166.394 28.7057 165.743 28.9859L166.534 30.8227ZM168.839 29.2681C169.491 28.6032 170.004 27.8312 170.379 26.9601L168.543 26.1688C168.262 26.8211 167.884 27.3851 167.411 27.8686L168.839 29.2681ZM170.382 26.955C170.764 26.054 170.953 25.1005 170.953 24.1035H168.953C168.953 24.8409 168.814 25.528 168.54 26.1739L170.382 26.955ZM170.953 24.1035V14.207H168.953V24.1035H170.953ZM169.953 15.207H173.557V13.207H169.953V15.207Z" fill="#41414D"/>
<g clip-path="url(#clip0)">
<path d="M62.7507 70.6283L42.0692 18.334C41.8405 17.7581 41.3146 17.3541 40.6994 17.2813L8.64802 13.5093C7.73836 13.3815 6.89732 14.0154 6.76954 14.9251C6.76669 14.9456 6.76416 14.9663 6.76195 14.9871L0.0144008 68.9684C-0.106266 69.8922 0.544672 70.739 1.46841 70.8597C1.48186 70.8615 1.49546 70.863 1.5089 70.8645L60.5508 77.6122H60.7431C61.6163 77.616 62.348 76.953 62.4301 76.0838L62.8686 71.4044C62.8911 71.14 62.8506 70.8741 62.7507 70.6283Z" fill="#F2C94C"/>
<path d="M74.2385 14.9871C74.1304 14.0618 73.2923 13.3993 72.367 13.5076C72.3621 13.5082 72.3574 13.5087 72.3525 13.5093L57.8451 15.2166L14.9975 20.2571C14.0801 20.3613 13.417 21.1838 13.5096 22.1025L18.5704 76.0837C18.6525 76.9529 19.3842 77.6158 20.2574 77.612H20.4497L79.4916 70.8643C80.4172 70.7582 81.0814 69.9217 80.9753 68.9961C80.9745 68.989 80.9737 68.982 80.9728 68.9749L74.2385 14.9871Z" fill="#CCCCCC"/>
<path d="M48.9348 27.0047C48.0032 27.0065 47.2466 26.2524 47.2449 25.3208C47.2441 24.8716 47.4225 24.4407 47.7405 24.1234L56.175 15.6889C56.8223 15.0189 57.8901 15.0002 58.5604 15.6475C59.2304 16.2948 59.2489 17.3626 58.6018 18.0328C58.5882 18.0469 58.5744 18.0607 58.5604 18.0743L50.1258 26.5088C49.8103 26.8252 49.3819 27.0036 48.9348 27.0047Z" fill="#455A64"/>
<path d="M62.4302 20.257C67.0885 20.257 70.8648 16.4808 70.8648 11.8225C70.8648 7.16426 67.0885 3.388 62.4302 3.388C57.772 3.388 53.9957 7.16426 53.9957 11.8225C53.9957 16.4808 57.772 20.257 62.4302 20.257Z" fill="#F44336"/>
<path d="M60.7433 77.6122H60.551L40.308 75.2977C39.3824 75.192 38.7177 74.3559 38.8233 73.4302C38.8233 73.4296 38.8235 73.4291 38.8235 73.4285C38.9395 72.5079 39.7697 71.8488 40.6926 71.944L59.225 74.0627L59.5016 71.0971C59.6076 70.179 60.4188 69.5078 61.3404 69.5755C62.268 69.6627 62.9493 70.4852 62.8621 71.4129C62.8621 71.4134 62.862 71.4138 62.862 71.4143L62.4234 76.0938C62.3368 76.9565 61.6102 77.6129 60.7433 77.6122Z" fill="#41414D"/>
<path d="M19.8221 72.9326H19.6265L1.50905 70.8645C0.582614 70.7661 -0.0887245 69.9353 0.0096436 69.0089C0.0110669 68.9953 0.0126484 68.9819 0.014388 68.9684L6.76209 14.9871C6.8535 14.0749 7.66718 13.4095 8.57937 13.501C8.60231 13.5033 8.62524 13.506 8.64817 13.5093L40.6996 17.2813C41.6186 17.4343 42.2398 18.3031 42.0868 19.2221C41.9442 20.0801 41.1724 20.6889 40.3048 20.6281L9.91652 17.0688L3.58727 67.6964L20.0111 69.5722C20.9428 69.6244 21.6557 70.422 21.6035 71.3536C21.5513 72.2853 20.7538 72.9982 19.8221 72.946V72.9326V72.9326Z" fill="#41414D"/>
<path d="M48.9348 27.0047C48.0032 27.0065 47.2466 26.2524 47.2449 25.3208C47.2441 24.8716 47.4225 24.4407 47.7405 24.1234L56.175 15.6889C56.8223 15.0189 57.8901 15.0002 58.5604 15.6475C59.2304 16.2948 59.2489 17.3626 58.6018 18.0328C58.5882 18.0469 58.5744 18.0607 58.5604 18.0743L50.1258 26.5088C49.8103 26.8252 49.3819 27.0036 48.9348 27.0047Z" fill="#41414D"/>
<path d="M20.2574 77.6122C19.3842 77.616 18.6525 76.953 18.5704 76.0838L13.5096 22.1026C13.417 21.1839 14.0801 20.3614 14.9975 20.2572L57.8451 15.2167C58.7641 15.0638 59.6331 15.685 59.7859 16.604C59.9388 17.523 59.3176 18.392 58.3986 18.5448C58.3459 18.5535 58.2929 18.5598 58.2398 18.5634L17.0284 23.4251L21.7754 74.0527L77.4132 67.6931L71.084 17.0688L68.0981 17.4061C67.1791 17.559 66.3101 16.9378 66.1573 16.0188C66.0044 15.0998 66.6256 14.2308 67.5446 14.078C67.5973 14.0693 67.6502 14.063 67.7034 14.0594L72.3525 13.5095C73.2768 13.3932 74.1204 14.0483 74.2366 14.9727C74.2373 14.9776 74.2379 14.9823 74.2384 14.9872L80.9862 68.9684C81.1041 69.8926 80.4504 70.7373 79.5262 70.8551C79.5191 70.8561 79.5121 70.8569 79.505 70.8576L20.4631 77.6054L20.2574 77.6122Z" fill="#41414D"/>
<path d="M62.4302 20.257C57.772 20.257 53.9957 16.4808 53.9957 11.8225C53.9957 7.16426 57.772 3.388 62.4302 3.388C67.0885 3.388 70.8648 7.16426 70.8648 11.8225C70.8648 16.4808 67.0885 20.257 62.4302 20.257ZM62.4302 6.76177C59.6353 6.76177 57.3695 9.02756 57.3695 11.8225C57.3695 14.6175 59.6353 16.8833 62.4302 16.8833C65.2252 16.8833 67.491 14.6175 67.491 11.8225C67.491 9.02756 65.2252 6.76177 62.4302 6.76177Z" fill="#41414D"/>
</g>
<path d="M128.367 61.1953C128.367 63.5234 127.992 65.7109 127.242 67.7578C126.508 69.8047 125.461 71.5859 124.102 73.1016C122.742 74.6172 121.109 75.8125 119.203 76.6875C117.312 77.5625 115.211 78 112.898 78H95.9531V73.1953H112.898C114.555 73.1953 116.039 72.8828 117.352 72.2578C118.68 71.6328 119.797 70.7812 120.703 69.7031C121.625 68.6094 122.328 67.3359 122.812 65.8828C123.312 64.4141 123.562 62.8516 123.562 61.1953C123.562 59.5391 123.312 57.9844 122.812 56.5312C122.328 55.0781 121.625 53.8125 120.703 52.7344C119.797 51.6406 118.68 50.7812 117.352 50.1562C116.039 49.5156 114.555 49.1953 112.898 49.1953H93.5625V78H88.7578V44.3906H112.898C115.211 44.3906 117.312 44.8359 119.203 45.7266C121.109 46.6016 122.742 47.8047 124.102 49.3359C125.461 50.8516 126.508 52.6328 127.242 54.6797C127.992 56.7109 128.367 58.8828 128.367 61.1953ZM138.68 78H133.922V51.6094H138.68V78ZM175.805 78H171V70.7578H152.508V65.8594H171V56.3438H158.508C157.336 56.3438 156.234 56.5703 155.203 57.0234C154.172 57.4609 153.273 58.0625 152.508 58.8281C151.742 59.5938 151.133 60.4922 150.68 61.5234C150.242 62.5391 150.023 63.6328 150.023 64.8047V78H145.172V64.8047C145.172 62.9609 145.523 61.2344 146.227 59.625C146.93 58.0156 147.883 56.6094 149.086 55.4062C150.289 54.2031 151.703 53.2578 153.328 52.5703C154.953 51.8672 156.68 51.5156 158.508 51.5156H175.805V78ZM170.227 45.3047L161.438 48.4688L160.289 45.9375L168.398 41.1797L170.227 45.3047ZM213.797 78H207.258L199.758 70.8516H190.031V66.0938H203.32C203.992 66.0938 204.625 65.9609 205.219 65.6953C205.812 65.4297 206.328 65.0781 206.766 64.6406C207.203 64.1875 207.547 63.6641 207.797 63.0703C208.047 62.4766 208.172 61.8516 208.172 61.1953C208.172 60.5234 208.047 59.8984 207.797 59.3203C207.547 58.7266 207.203 58.2109 206.766 57.7734C206.328 57.3359 205.812 56.9922 205.219 56.7422C204.625 56.4766 203.992 56.3438 203.32 56.3438H187.523V78H182.719V51.6094H203.32C204.648 51.6094 205.898 51.8672 207.07 52.3828C208.242 52.8828 209.258 53.5703 210.117 54.4453C210.992 55.3047 211.68 56.3203 212.18 57.4922C212.68 58.6484 212.93 59.8828 212.93 61.1953C212.93 62.2734 212.758 63.3125 212.414 64.3125C212.07 65.2969 211.586 66.2031 210.961 67.0312C210.352 67.8438 209.625 68.5469 208.781 69.1406C207.938 69.7344 207.016 70.1719 206.016 70.4531L213.797 78ZM223.383 78H218.625V51.6094H223.383V78ZM261.422 64.7578C261.422 66.5859 261.133 68.3047 260.555 69.9141C259.977 71.5078 259.148 72.9062 258.07 74.1094C257.008 75.3125 255.727 76.2656 254.227 76.9688C252.742 77.6562 251.086 78 249.258 78H240.914C239.086 78 237.422 77.6562 235.922 76.9688C234.422 76.2656 233.133 75.3125 232.055 74.1094C230.992 72.9062 230.172 71.5078 229.594 69.9141C229.016 68.3047 228.727 66.5859 228.727 64.7578C228.727 62.9453 229.016 61.2422 229.594 59.6484C230.172 58.0547 230.992 56.6641 232.055 55.4766C233.133 54.2734 234.422 53.3281 235.922 52.6406C237.422 51.9531 239.086 51.6094 240.914 51.6094H249.258C251.086 51.6094 252.742 51.9531 254.227 52.6406C255.727 53.3281 257.008 54.2734 258.07 55.4766C259.148 56.6641 259.977 58.0547 260.555 59.6484C261.133 61.2422 261.422 62.9453 261.422 64.7578ZM256.617 64.7578C256.617 63.6016 256.445 62.5156 256.102 61.5C255.773 60.4688 255.289 59.5781 254.648 58.8281C254.023 58.0625 253.258 57.4609 252.352 57.0234C251.445 56.5703 250.414 56.3438 249.258 56.3438H240.914C239.758 56.3438 238.719 56.5703 237.797 57.0234C236.891 57.4609 236.117 58.0625 235.477 58.8281C234.852 59.5781 234.367 60.4688 234.023 61.5C233.695 62.5156 233.531 63.6016 233.531 64.7578C233.531 65.9141 233.695 67.0078 234.023 68.0391C234.367 69.0547 234.852 69.9453 235.477 70.7109C236.117 71.4766 236.891 72.0859 237.797 72.5391C238.719 72.9766 239.758 73.1953 240.914 73.1953H249.258C250.414 73.1953 251.445 72.9766 252.352 72.5391C253.258 72.0859 254.023 71.4766 254.648 70.7109C255.289 69.9453 255.773 69.0547 256.102 68.0391C256.445 67.0078 256.617 65.9141 256.617 64.7578Z" fill="#F2C94C"/>
<path d="M127.242 67.7578L126.303 67.4138L126.301 67.4201L127.242 67.7578ZM119.203 76.6875L118.786 75.7787L118.783 75.78L119.203 76.6875ZM95.9531 78H94.9531V79H95.9531V78ZM95.9531 73.1953V72.1953H94.9531V73.1953H95.9531ZM117.352 72.2578L116.926 71.353L116.922 71.355L117.352 72.2578ZM120.703 69.7031L119.938 69.0587L119.938 69.0597L120.703 69.7031ZM122.812 65.8828L121.866 65.5605L121.864 65.5666L122.812 65.8828ZM122.812 56.5312L121.864 56.8475L121.867 56.8566L122.812 56.5312ZM120.703 52.7344L119.933 53.3724L119.938 53.3784L119.943 53.3843L120.703 52.7344ZM117.352 50.1562L116.913 51.0549L116.919 51.058L116.926 51.0611L117.352 50.1562ZM93.5625 49.1953V48.1953H92.5625V49.1953H93.5625ZM93.5625 78V79H94.5625V78H93.5625ZM88.7578 78H87.7578V79H88.7578V78ZM88.7578 44.3906V43.3906H87.7578V44.3906H88.7578ZM119.203 45.7266L118.777 46.6313L118.786 46.6354L119.203 45.7266ZM124.102 49.3359L123.354 49.9998L123.357 50.0036L124.102 49.3359ZM127.242 54.6797L126.301 55.0174L126.304 55.0261L127.242 54.6797ZM127.367 61.1953C127.367 63.4141 127.01 65.4844 126.303 67.4138L128.181 68.1019C128.974 65.9375 129.367 63.6328 129.367 61.1953H127.367ZM126.301 67.4201C125.607 69.3537 124.624 71.0209 123.357 72.4339L124.846 73.7693C126.297 72.151 127.408 70.2557 128.183 68.0955L126.301 67.4201ZM123.357 72.4339C122.092 73.8444 120.572 74.959 118.786 75.7787L119.62 77.5963C121.647 76.666 123.392 75.3899 124.846 73.7693L123.357 72.4339ZM118.783 75.78C117.038 76.5876 115.082 77 112.898 77V79C115.34 79 117.587 78.5374 119.623 77.595L118.783 75.78ZM112.898 77H95.9531V79H112.898V77ZM96.9531 78V73.1953H94.9531V78H96.9531ZM95.9531 74.1953H112.898V72.1953H95.9531V74.1953ZM112.898 74.1953C114.683 74.1953 116.317 73.858 117.781 73.1607L116.922 71.355C115.761 71.9076 114.427 72.1953 112.898 72.1953V74.1953ZM117.777 73.1626C119.231 72.4787 120.465 71.54 121.469 70.3466L119.938 69.0597C119.128 70.0225 118.129 70.7869 116.926 71.353L117.777 73.1626ZM121.468 70.3476C122.477 69.1504 123.24 67.7637 123.761 66.199L121.864 65.5666C121.417 66.9082 120.773 68.0684 119.938 69.0587L121.468 70.3476ZM123.759 66.2051C124.297 64.6258 124.562 62.9538 124.562 61.1953H122.562C122.562 62.7494 122.328 64.2024 121.866 65.5605L123.759 66.2051ZM124.562 61.1953C124.562 59.437 124.297 57.7716 123.758 56.2059L121.867 56.8566C122.328 58.1972 122.562 59.6412 122.562 61.1953H124.562ZM123.761 56.215C123.239 54.6494 122.475 53.2682 121.463 52.0845L119.943 53.3843C120.775 54.3568 121.417 55.5069 121.864 56.8475L123.761 56.215ZM121.473 52.0964C120.47 50.8856 119.234 49.9368 117.777 49.2514L116.926 51.0611C118.126 51.6257 119.124 52.3956 119.933 53.3724L121.473 52.0964ZM117.79 49.2576C116.324 48.5418 114.686 48.1953 112.898 48.1953V50.1953C114.423 50.1953 115.754 50.4894 116.913 51.0549L117.79 49.2576ZM112.898 48.1953H93.5625V50.1953H112.898V48.1953ZM92.5625 49.1953V78H94.5625V49.1953H92.5625ZM93.5625 77H88.7578V79H93.5625V77ZM89.7578 78V44.3906H87.7578V78H89.7578ZM88.7578 45.3906H112.898V43.3906H88.7578V45.3906ZM112.898 45.3906C115.079 45.3906 117.033 45.8098 118.777 46.6312L119.629 44.8219C117.592 43.8621 115.342 43.3906 112.898 43.3906V45.3906ZM118.786 46.6354C120.569 47.454 122.089 48.5748 123.354 49.9998L124.849 48.672C123.396 47.0345 121.649 45.7491 119.62 44.8177L118.786 46.6354ZM123.357 50.0036C124.624 51.4166 125.607 53.0838 126.301 55.0174L128.183 54.342C127.408 52.1818 126.297 50.2865 124.846 48.6682L123.357 50.0036ZM126.304 55.0261C127.01 56.9391 127.367 58.9929 127.367 61.1953H129.367C129.367 58.7727 128.974 56.4828 128.18 54.3333L126.304 55.0261ZM138.68 78V79H139.68V78H138.68ZM133.922 78H132.922V79H133.922V78ZM133.922 51.6094V50.6094H132.922V51.6094H133.922ZM138.68 51.6094H139.68V50.6094H138.68V51.6094ZM138.68 77H133.922V79H138.68V77ZM134.922 78V51.6094H132.922V78H134.922ZM133.922 52.6094H138.68V50.6094H133.922V52.6094ZM137.68 51.6094V78H139.68V51.6094H137.68ZM175.805 78V79H176.805V78H175.805ZM171 78H170V79H171V78ZM171 70.7578H172V69.7578H171V70.7578ZM152.508 70.7578H151.508V71.7578H152.508V70.7578ZM152.508 65.8594V64.8594H151.508V65.8594H152.508ZM171 65.8594V66.8594H172V65.8594H171ZM171 56.3438H172V55.3438H171V56.3438ZM155.203 57.0234L155.594 57.9441L155.605 57.939L155.203 57.0234ZM150.68 61.5234L149.764 61.1212L149.761 61.1278L150.68 61.5234ZM150.023 78V79H151.023V78H150.023ZM145.172 78H144.172V79H145.172V78ZM153.328 52.5703L153.718 53.4913L153.725 53.4881L153.328 52.5703ZM175.805 51.5156H176.805V50.5156H175.805V51.5156ZM170.227 45.3047L170.565 46.2456L171.576 45.8817L171.141 44.8995L170.227 45.3047ZM161.438 48.4688L160.527 48.8819L160.908 49.7222L161.776 49.4096L161.438 48.4688ZM160.289 45.9375L159.783 45.075L159.006 45.5307L159.378 46.3507L160.289 45.9375ZM168.398 41.1797L169.313 40.7745L168.859 39.7502L167.892 40.3172L168.398 41.1797ZM175.805 77H171V79H175.805V77ZM172 78V70.7578H170V78H172ZM171 69.7578H152.508V71.7578H171V69.7578ZM153.508 70.7578V65.8594H151.508V70.7578H153.508ZM152.508 66.8594H171V64.8594H152.508V66.8594ZM172 65.8594V56.3438H170V65.8594H172ZM171 55.3438H158.508V57.3438H171V55.3438ZM158.508 55.3438C157.203 55.3438 155.964 55.5968 154.801 56.1079L155.605 57.939C156.505 57.5438 157.469 57.3438 158.508 57.3438V55.3438ZM154.813 56.1029C153.667 56.5888 152.66 57.2614 151.801 58.121L153.215 59.5352C153.887 58.8636 154.677 58.3331 155.594 57.944L154.813 56.1029ZM151.801 58.121C150.944 58.978 150.265 59.9809 149.764 61.1212L151.595 61.9257C152 61.0035 152.541 60.2095 153.215 59.5352L151.801 58.121ZM149.761 61.1278C149.267 62.2758 149.023 63.505 149.023 64.8047H151.023C151.023 63.7606 151.218 62.8024 151.598 61.9191L149.761 61.1278ZM149.023 64.8047V78H151.023V64.8047H149.023ZM150.023 77H145.172V79H150.023V77ZM146.172 78V64.8047H144.172V78H146.172ZM146.172 64.8047C146.172 63.0917 146.498 61.5022 147.143 60.0254L145.31 59.2246C144.549 60.9665 144.172 62.8301 144.172 64.8047H146.172ZM147.143 60.0254C147.798 58.5266 148.681 57.2253 149.793 56.1134L148.379 54.6991C147.085 55.9934 146.062 57.5046 145.31 59.2246L147.143 60.0254ZM149.793 56.1134C150.902 55.0047 152.207 54.1305 153.718 53.4913L152.938 51.6493C151.199 52.3851 149.676 53.4016 148.379 54.6991L149.793 56.1134ZM153.725 53.4881C155.221 52.841 156.812 52.5156 158.508 52.5156V50.5156C156.548 50.5156 154.685 50.8934 152.931 51.6525L153.725 53.4881ZM158.508 52.5156H175.805V50.5156H158.508V52.5156ZM174.805 51.5156V78H176.805V51.5156H174.805ZM169.888 44.3638L161.099 47.5279L161.776 49.4096L170.565 46.2456L169.888 44.3638ZM162.348 48.0556L161.2 45.5243L159.378 46.3507L160.527 48.8819L162.348 48.0556ZM160.795 46.8L168.904 42.0422L167.892 40.3172L159.783 45.075L160.795 46.8ZM167.484 41.5849L169.312 45.7099L171.141 44.8995L169.313 40.7745L167.484 41.5849ZM213.797 78V79H216.264L214.493 77.2822L213.797 78ZM207.258 78L206.568 78.7239L206.858 79H207.258V78ZM199.758 70.8516L200.448 70.1277L200.158 69.8516H199.758V70.8516ZM190.031 70.8516H189.031V71.8516H190.031V70.8516ZM190.031 66.0938V65.0938H189.031V66.0938H190.031ZM206.766 64.6406L207.473 65.3477L207.479 65.3415L207.485 65.3352L206.766 64.6406ZM207.797 59.3203L206.875 59.7084L206.879 59.7172L207.797 59.3203ZM205.219 56.7422L204.81 57.655L204.82 57.6595L204.831 57.6638L205.219 56.7422ZM187.523 56.3438V55.3438H186.523V56.3438H187.523ZM187.523 78V79H188.523V78H187.523ZM182.719 78H181.719V79H182.719V78ZM182.719 51.6094V50.6094H181.719V51.6094H182.719ZM207.07 52.3828L206.668 53.2982L206.678 53.3026L207.07 52.3828ZM210.117 54.4453L209.404 55.146L209.41 55.1524L209.416 55.1588L210.117 54.4453ZM212.18 57.4922L211.26 57.8846L211.262 57.8891L212.18 57.4922ZM212.414 64.3125L213.358 64.6422L213.36 64.6376L212.414 64.3125ZM210.961 67.0312L210.163 66.4288L210.161 66.4313L210.961 67.0312ZM206.016 70.4531L205.745 69.4905L204.072 69.961L205.319 71.171L206.016 70.4531ZM213.797 77H207.258V79H213.797V77ZM207.948 77.2761L200.448 70.1277L199.068 71.5754L206.568 78.7239L207.948 77.2761ZM199.758 69.8516H190.031V71.8516H199.758V69.8516ZM191.031 70.8516V66.0938H189.031V70.8516H191.031ZM190.031 67.0938H203.32V65.0938H190.031V67.0938ZM203.32 67.0938C204.128 67.0938 204.901 66.9331 205.627 66.6081L204.81 64.7825C204.349 64.9887 203.856 65.0938 203.32 65.0938V67.0938ZM205.627 66.6081C206.326 66.2953 206.945 65.8758 207.473 65.3477L206.059 63.9335C205.712 64.2804 205.299 64.5641 204.81 64.7825L205.627 66.6081ZM207.485 65.3352C208.01 64.7912 208.422 64.1633 208.719 63.4584L206.875 62.6823C206.672 63.1649 206.396 63.5838 206.046 63.946L207.485 65.3352ZM208.719 63.4584C209.021 62.7395 209.172 61.9823 209.172 61.1953H207.172C207.172 61.7208 207.073 62.2137 206.875 62.6823L208.719 63.4584ZM209.172 61.1953C209.172 60.3962 209.022 59.635 208.715 58.9234L206.879 59.7172C207.071 60.1618 207.172 60.6507 207.172 61.1953H209.172ZM208.719 58.9323C208.42 58.2243 208.005 57.5991 207.473 57.0663L206.059 58.4805C206.401 58.8228 206.673 59.2288 206.875 59.7084L208.719 58.9323ZM207.473 57.0663C206.94 56.5336 206.315 56.1186 205.607 55.8206L204.831 57.6638C205.31 57.8657 205.716 58.1383 206.059 58.4805L207.473 57.0663ZM205.627 55.8294C204.901 55.5044 204.128 55.3438 203.32 55.3438V57.3438C203.856 57.3438 204.349 57.4488 204.81 57.655L205.627 55.8294ZM203.32 55.3438H187.523V57.3438H203.32V55.3438ZM186.523 56.3438V78H188.523V56.3438H186.523ZM187.523 77H182.719V79H187.523V77ZM183.719 78V51.6094H181.719V78H183.719ZM182.719 52.6094H203.32V50.6094H182.719V52.6094ZM203.32 52.6094C204.515 52.6094 205.627 52.8404 206.668 53.2981L207.473 51.4675C206.169 50.8939 204.782 50.6094 203.32 50.6094V52.6094ZM206.678 53.3026C207.734 53.7533 208.64 54.368 209.404 55.146L210.831 53.7446C209.876 52.7727 208.75 52.0123 207.463 51.463L206.678 53.3026ZM209.416 55.1588C210.195 55.9229 210.809 56.8283 211.26 57.8846L213.099 57.0997C212.55 55.8123 211.79 54.6864 210.818 53.7319L209.416 55.1588ZM211.262 57.8891C211.705 58.9148 211.93 60.0135 211.93 61.1953H213.93C213.93 59.7521 213.654 58.3821 213.098 57.0953L211.262 57.8891ZM211.93 61.1953C211.93 62.165 211.775 63.0941 211.468 63.9874L213.36 64.6376C213.74 63.5309 213.93 62.3819 213.93 61.1953H211.93ZM211.47 63.9828C211.16 64.8698 210.725 65.6839 210.163 66.4288L211.759 67.6337C212.447 66.7223 212.98 65.724 213.358 64.6422L211.47 63.9828ZM210.161 66.4313C209.616 67.1585 208.965 67.7885 208.206 68.3228L209.357 69.9584C210.285 69.3053 211.088 68.529 211.761 67.6312L210.161 66.4313ZM208.206 68.3228C207.455 68.8509 206.637 69.2397 205.745 69.4905L206.286 71.4158C207.395 71.1041 208.42 70.6178 209.357 69.9584L208.206 68.3228ZM205.319 71.171L213.101 78.7178L214.493 77.2822L206.712 69.7353L205.319 71.171ZM223.383 78V79H224.383V78H223.383ZM218.625 78H217.625V79H218.625V78ZM218.625 51.6094V50.6094H217.625V51.6094H218.625ZM223.383 51.6094H224.383V50.6094H223.383V51.6094ZM223.383 77H218.625V79H223.383V77ZM219.625 78V51.6094H217.625V78H219.625ZM218.625 52.6094H223.383V50.6094H218.625V52.6094ZM222.383 51.6094V78H224.383V51.6094H222.383ZM260.555 69.9141L261.495 70.2551L261.496 70.2521L260.555 69.9141ZM258.07 74.1094L257.326 73.442L257.321 73.4474L258.07 74.1094ZM254.227 76.9688L254.647 77.8762L254.651 77.8742L254.227 76.9688ZM235.922 76.9688L235.497 77.8742L235.505 77.8778L235.922 76.9688ZM232.055 74.1094L231.305 74.7713L231.31 74.7767L232.055 74.1094ZM229.594 69.9141L228.653 70.2521L228.654 70.2551L229.594 69.9141ZM232.055 55.4766L231.31 54.8092L231.309 54.8098L232.055 55.4766ZM254.227 52.6406L253.806 53.548L253.81 53.5497L254.227 52.6406ZM258.07 55.4766L257.321 56.1386L257.33 56.1488L258.07 55.4766ZM256.102 61.5L255.149 61.8032L255.151 61.8119L255.154 61.8206L256.102 61.5ZM254.648 58.8281L253.874 59.4605L253.881 59.4691L253.888 59.4776L254.648 58.8281ZM252.352 57.0234L251.904 57.918L251.917 57.924L252.352 57.0234ZM237.797 57.0234L238.232 57.924L238.238 57.9209L237.797 57.0234ZM235.477 58.8281L234.71 58.1864L234.708 58.1879L235.477 58.8281ZM234.023 61.5L233.075 61.1838L233.072 61.1926L234.023 61.5ZM234.023 68.0391L233.071 68.3423L233.073 68.351L233.076 68.3597L234.023 68.0391ZM235.477 70.7109L234.702 71.3434L234.71 71.3527L235.477 70.7109ZM237.797 72.5391L237.35 73.4335L237.359 73.4381L237.368 73.4425L237.797 72.5391ZM252.352 72.5391L252.786 73.4397L252.799 73.4335L252.352 72.5391ZM254.648 70.7109L253.881 70.0692L253.874 70.0786L254.648 70.7109ZM256.102 68.0391L255.153 67.7228L255.15 67.7316L256.102 68.0391ZM260.422 64.7578C260.422 66.4787 260.15 68.0823 259.614 69.576L261.496 70.2521C262.116 68.527 262.422 66.6932 262.422 64.7578H260.422ZM259.615 69.5731C259.078 71.0526 258.314 72.3388 257.326 73.442L258.815 74.7767C259.983 73.4737 260.875 71.9631 261.495 70.2551L259.615 69.5731ZM257.321 73.4474C256.352 74.5447 255.182 75.4163 253.802 76.0633L254.651 77.8742C256.271 77.1149 257.664 76.0803 258.82 74.7713L257.321 73.4474ZM253.806 76.0614C252.468 76.681 250.958 77 249.258 77V79C251.214 79 253.016 78.6315 254.647 77.8761L253.806 76.0614ZM249.258 77H240.914V79H249.258V77ZM240.914 77C239.214 77 237.694 76.6811 236.339 76.0597L235.505 77.8778C237.149 78.6314 238.958 79 240.914 79V77ZM236.346 76.0633C234.965 75.4157 233.786 74.5425 232.799 73.442L231.31 74.7767C232.48 76.0825 233.879 77.1155 235.497 77.8742L236.346 76.0633ZM232.804 73.4474C231.829 72.3436 231.072 71.0555 230.534 69.5731L228.654 70.2551C229.272 71.9601 230.155 73.4689 231.305 74.7713L232.804 73.4474ZM230.535 69.576C229.998 68.0823 229.727 66.4787 229.727 64.7578H227.727C227.727 66.6932 228.033 68.527 228.653 70.2521L230.535 69.576ZM229.727 64.7578C229.727 63.0535 229.998 61.4665 230.534 59.9894L228.654 59.3074C228.033 61.0178 227.727 62.8371 227.727 64.7578H229.727ZM230.534 59.9894C231.071 58.508 231.828 57.2297 232.8 56.1434L231.309 54.8098C230.156 56.0984 229.273 57.6014 228.654 59.3074L230.534 59.9894ZM232.799 56.1439C233.784 55.0453 234.961 54.1812 236.339 53.5497L235.505 51.7316C233.883 52.475 232.482 53.5016 231.31 54.8092L232.799 56.1439ZM236.339 53.5497C237.694 52.9283 239.214 52.6094 240.914 52.6094V50.6094C238.958 50.6094 237.149 50.978 235.505 51.7316L236.339 53.5497ZM240.914 52.6094H249.258V50.6094H240.914V52.6094ZM249.258 52.6094C250.958 52.6094 252.468 52.9283 253.806 53.548L254.647 51.7332C253.016 50.9779 251.214 50.6094 249.258 50.6094V52.6094ZM253.81 53.5497C255.187 54.1806 256.353 55.0431 257.321 56.1385L258.82 54.8146C257.662 53.5038 256.267 52.4756 254.643 51.7316L253.81 53.5497ZM257.33 56.1488C258.316 57.2345 259.078 58.511 259.615 59.9894L261.495 59.3074C260.875 57.5984 259.981 56.0936 258.811 54.8044L257.33 56.1488ZM259.615 59.9894C260.15 61.4665 260.422 63.0535 260.422 64.7578H262.422C262.422 62.8371 262.115 61.0178 261.495 59.3074L259.615 59.9894ZM257.617 64.7578C257.617 63.5011 257.43 62.3061 257.049 61.1794L255.154 61.8206C255.461 62.7252 255.617 63.702 255.617 64.7578H257.617ZM257.054 61.1968C256.69 60.0509 256.144 59.0395 255.409 58.1786L253.888 59.4776C254.434 60.1167 254.857 60.8866 255.149 61.8032L257.054 61.1968ZM255.423 58.1957C254.704 57.3149 253.822 56.6227 252.786 56.1229L251.917 57.924C252.694 58.2992 253.343 58.8101 253.874 59.4605L255.423 58.1957ZM252.799 56.129C251.735 55.5972 250.547 55.3438 249.258 55.3438V57.3438C250.281 57.3438 251.155 57.5434 251.904 57.9179L252.799 56.129ZM249.258 55.3438H240.914V57.3438H249.258V55.3438ZM240.914 55.3438C239.624 55.3438 238.431 55.5973 237.356 56.126L238.238 57.9209C239.006 57.5433 239.891 57.3438 240.914 57.3438V55.3438ZM237.362 56.1229C236.329 56.6216 235.442 57.311 234.71 58.1864L236.243 59.4698C236.792 58.814 237.452 58.3003 238.232 57.924L237.362 56.1229ZM234.708 58.1879C233.995 59.044 233.453 60.0476 233.075 61.1838L234.972 61.8162C235.281 60.8899 235.708 60.1122 236.245 59.4683L234.708 58.1879ZM233.072 61.1926C232.709 62.3154 232.531 63.5059 232.531 64.7578H234.531C234.531 63.6973 234.682 62.7158 234.975 61.8074L233.072 61.1926ZM232.531 64.7578C232.531 66.0099 232.709 67.2065 233.071 68.3423L234.976 67.7359C234.682 66.8091 234.531 65.8182 234.531 64.7578H232.531ZM233.076 68.3597C233.455 69.479 233.995 70.4774 234.702 71.3433L236.251 70.0786C235.708 69.4133 235.279 68.6303 234.971 67.7185L233.076 68.3597ZM234.71 71.3527C235.44 72.2252 236.323 72.9199 237.35 73.4335L238.244 71.6446C237.459 71.252 236.795 70.7279 236.243 70.0692L234.71 71.3527ZM237.368 73.4425C238.441 73.9516 239.629 74.1953 240.914 74.1953V72.1953C239.886 72.1953 238.997 72.0016 238.226 71.6356L237.368 73.4425ZM240.914 74.1953H249.258V72.1953H240.914V74.1953ZM249.258 74.1953C250.542 74.1953 251.726 73.9517 252.786 73.4396L251.917 71.6385C251.165 72.0015 250.286 72.1953 249.258 72.1953V74.1953ZM252.799 73.4335C253.828 72.9188 254.706 72.2213 255.423 71.3433L253.874 70.0786C253.34 70.7319 252.687 71.2531 251.904 71.6446L252.799 73.4335ZM255.415 71.3527C256.144 70.4818 256.688 69.4758 257.053 68.3465L255.15 67.7316C254.859 68.6335 254.434 69.4088 253.882 70.0692L255.415 71.3527ZM257.05 68.3553C257.43 67.2158 257.617 66.0147 257.617 64.7578H255.617C255.617 65.8134 255.461 66.7999 255.153 67.7228L257.05 68.3553Z" fill="#F2C94C"/>
<defs>
<clipPath id="clip0">
<rect width="81" height="81" fill="white"/>
</clipPath>
</defs>
</svg>
